<svg
              xmlns="http://www.w3.org/2000/svg"
              width="50"
              height="51"
              viewBox="0 0 50 51"
              fill="none"
              id="phone"
            >
              <path
                d="M17.5 5.86914C16.1739 5.86914 14.9021 6.39592 13.9645 7.33361C13.0268 8.27129 12.5 9.54306 12.5 10.8691V40.8691C12.5 42.1952 13.0268 43.467 13.9645 44.4047C14.9021 45.3424 16.1739 45.8691 17.5 45.8691H32.5C33.8261 45.8691 35.0979 45.3424 36.0355 44.4047C36.9732 43.467 37.5 42.1952 37.5 40.8691V10.8691C37.5 9.54306 36.9732 8.27129 36.0355 7.33361C35.0979 6.39592 33.8261 5.86914 32.5 5.86914H17.5ZM5 15.8691C5 14.5431 5.52678 13.2713 6.46447 12.3336C7.40215 11.3959 8.67392 10.8691 10 10.8691V40.8691C8.67392 40.8691 7.40215 40.3424 6.46447 39.4047C5.52678 38.467 5 37.1952 5 35.8691V15.8691ZM40 40.8691V10.8691C41.3261 10.8691 42.5979 11.3959 43.5355 12.3336C44.4732 13.2713 45 14.5431 45 15.8691V35.8691C45 37.1952 44.4732 38.467 43.5355 39.4047C42.5979 40.3424 41.3261 40.8691 40 40.8691Z"
                fill="#212121"
              />
            </svg>